<svg class="diagram-root" style="background: #f5f6f6" xmlns="http://www.w3.org/2000/svg" xmlns:xlink="http://www.w3.org/1999/xlink"><style>.diagram-root { font-family: "Helvetica Neue", sans-serif; font-size: 12px; } .t { overflow: visible; } .t-bg { y: 40; fill: #fff;   } .th { fill: #005aa0;   } .tht { fill: #fff; font-size: 14px;  } .tf { fill: #323c46; overflow: visible; } .tf.pk { fill: #005aa0; font-weight: bold; } .tf.fk { font-weight: bold; } .ty { fill: #adb1b5; font-weight: normal; text-anchor: end; } .r { fill: transparent; stroke: #c3c3c3; stroke-width: 1; } .l { stroke: 1; } .i { fill: #c2c7ce; stroke: #c2c7ce; } .i.ix { fill: #afb3b6; stroke: #000; } .fa { fill: transparent; overflow: visible; } .fa .bg.hover { fill: #f7f7f7; } .c { cy: 12; r: 4; stroke: #d2d2dc; fill: #d2d2dc; } .hr { fill: transparent; stroke: #323c46; stroke-opacity: 0.035; stroke-width: 13; } .dc { stroke: #fa5a3c; fill: #fa5a3c; } .x { stroke: white; stroke-width: 1; } .hl .th { fill: #1b9bff; } .hl .tht {  } .fhl .bg { fill: #e7f4ff; } .fhls .bg {  } .r.hl { stroke: #1b9bff; } .dim { opacity: 0.25; }</style><g class="drawing-wrapper" transform="translate(17, 87.5) scale(1,1)"><g class="rs"><path d="M 585.64 40.75 m -1, 0 a 1,1 0 1,0 2,0 a 1,1 0 1,0 -2,0 M 585.64 40.75 m -0.5, 0 a 0.5,0.5 0 1,0 1,0 a 0.5,0.5 0 1,0 -1,0  M585.64 40.75 L585.64 40.75 597.64 40.75 M 585.64 46.75 m -1, 0 a 1,1 0 1,0 2,0 a 1,1 0 1,0 -2,0 M 585.64 46.75 m -0.5, 0 a 0.5,0.5 0 1,0 1,0 a 0.5,0.5 0 1,0 -1,0  M585.64 46.75 L585.64 46.75 592.64 40.75 585.64 34.75 M 585.64 34.75 m -1, 0 a 1,1 0 1,0 2,0 a 1,1 0 1,0 -2,0 M 585.64 34.75 m -0.5, 0 a 0.5,0.5 0 1,0 1,0 a 0.5,0.5 0 1,0 -1,0  M597.64 40.75 C 647.64 40.75, 774.3 229.5, 386.54 229.5 M 374.54 229.5 m -1, 0 a 1,1 0 1,0 2,0 a 1,1 0 1,0 -2,0 M 374.54 229.5 m -0.5, 0 a 0.5,0.5 0 1,0 1,0 a 0.5,0.5 0 1,0 -1,0  M374.54 229.5 L374.54 229.5 386.54 229.5 M380.54 235.5 L380.54 235.5 380.54 223.5" id="h1139284389" class="r"></path><path d="M 128.29 289.5 m -1, 0 a 1,1 0 1,0 2,0 a 1,1 0 1,0 -2,0 M 128.29 289.5 m -0.5, 0 a 0.5,0.5 0 1,0 1,0 a 0.5,0.5 0 1,0 -1,0  M128.29 289.5 L128.29 289.5 140.29 289.5 M 128.29 295.5 m -1, 0 a 1,1 0 1,0 2,0 a 1,1 0 1,0 -2,0 M 128.29 295.5 m -0.5, 0 a 0.5,0.5 0 1,0 1,0 a 0.5,0.5 0 1,0 -1,0  M128.29 295.5 L128.29 295.5 135.29 289.5 128.29 283.5 M 128.29 283.5 m -1, 0 a 1,1 0 1,0 2,0 a 1,1 0 1,0 -2,0 M 128.29 283.5 m -0.5, 0 a 0.5,0.5 0 1,0 1,0 a 0.5,0.5 0 1,0 -1,0  M140.29 289.5 Q 160.35 289.5, 180.4 259.5 T 220.5 229.5 M 232.5 229.5 m -1, 0 a 1,1 0 1,0 2,0 a 1,1 0 1,0 -2,0 M 232.5 229.5 m -0.5, 0 a 0.5,0.5 0 1,0 1,0 a 0.5,0.5 0 1,0 -1,0  M232.5 229.5 L232.5 229.5 220.5 229.5 M226.5 235.5 L226.5 235.5 226.5 223.5" id="h3177548053" class="r"></path><path d="M 5 73.25 m -1, 0 a 1,1 0 1,0 2,0 a 1,1 0 1,0 -2,0 M 5 73.25 m -0.5, 0 a 0.5,0.5 0 1,0 1,0 a 0.5,0.5 0 1,0 -1,0  M5 73.25 L5 73.25 -7 73.25 M 5 79.25 m -1, 0 a 1,1 0 1,0 2,0 a 1,1 0 1,0 -2,0 M 5 79.25 m -0.5, 0 a 0.5,0.5 0 1,0 1,0 a 0.5,0.5 0 1,0 -1,0  M5 79.25 L5 79.25 -2 73.25 5 67.25 M 5 67.25 m -1, 0 a 1,1 0 1,0 2,0 a 1,1 0 1,0 -2,0 M 5 67.25 m -0.5, 0 a 0.5,0.5 0 1,0 1,0 a 0.5,0.5 0 1,0 -1,0  M-7 73.25 C -57 73.25, -156.75 -0.5, 159.25 -0.5 M 171.25 -0.5 m -1, 0 a 1,1 0 1,0 2,0 a 1,1 0 1,0 -2,0 M 171.25 -0.5 m -0.5, 0 a 0.5,0.5 0 1,0 1,0 a 0.5,0.5 0 1,0 -1,0  M171.25 -0.5 L171.25 -0.5 159.25 -0.5 M165.25 5.5 L165.25 5.5 165.25 -6.5" id="h1397587031" class="r"></path><path d="M 134.39 98.25 m -1, 0 a 1,1 0 1,0 2,0 a 1,1 0 1,0 -2,0 M 134.39 98.25 m -0.5, 0 a 0.5,0.5 0 1,0 1,0 a 0.5,0.5 0 1,0 -1,0  M134.39 98.25 L134.39 98.25 146.39 98.25 M 134.39 104.25 m -1, 0 a 1,1 0 1,0 2,0 a 1,1 0 1,0 -2,0 M 134.39 104.25 m -0.5, 0 a 0.5,0.5 0 1,0 1,0 a 0.5,0.5 0 1,0 -1,0  M134.39 104.25 L134.39 104.25 141.39 98.25 134.39 92.25 M 134.39 92.25 m -1, 0 a 1,1 0 1,0 2,0 a 1,1 0 1,0 -2,0 M 134.39 92.25 m -0.5, 0 a 0.5,0.5 0 1,0 1,0 a 0.5,0.5 0 1,0 -1,0  M146.39 98.25 Q 164.92 98.25, 183.45 163.88 T 220.5 229.5 M 232.5 229.5 m -1, 0 a 1,1 0 1,0 2,0 a 1,1 0 1,0 -2,0 M 232.5 229.5 m -0.5, 0 a 0.5,0.5 0 1,0 1,0 a 0.5,0.5 0 1,0 -1,0  M232.5 229.5 L232.5 229.5 220.5 229.5 M226.5 235.5 L226.5 235.5 226.5 223.5" id="h2286254435" class="r"></path><path d="M 501.25 333.25 m -1, 0 a 1,1 0 1,0 2,0 a 1,1 0 1,0 -2,0 M 501.25 333.25 m -0.5, 0 a 0.5,0.5 0 1,0 1,0 a 0.5,0.5 0 1,0 -1,0  M501.25 333.25 L501.25 333.25 489.25 333.25 M 501.25 339.25 m -1, 0 a 1,1 0 1,0 2,0 a 1,1 0 1,0 -2,0 M 501.25 339.25 m -0.5, 0 a 0.5,0.5 0 1,0 1,0 a 0.5,0.5 0 1,0 -1,0  M501.25 339.25 L501.25 339.25 494.25 333.25 501.25 327.25 M 501.25 327.25 m -1, 0 a 1,1 0 1,0 2,0 a 1,1 0 1,0 -2,0 M 501.25 327.25 m -0.5, 0 a 0.5,0.5 0 1,0 1,0 a 0.5,0.5 0 1,0 -1,0  M489.25 333.25 Q 463.58 333.25, 437.9 293.88 T 386.54 254.5 M 374.54 254.5 m -1, 0 a 1,1 0 1,0 2,0 a 1,1 0 1,0 -2,0 M 374.54 254.5 m -0.5, 0 a 0.5,0.5 0 1,0 1,0 a 0.5,0.5 0 1,0 -1,0  M374.54 254.5 L374.54 254.5 386.54 254.5 M380.54 260.5 L380.54 260.5 380.54 248.5" id="h217937630" class="r"></path></g><g class="hrs"></g><g class="ts"><svg width="146.06" height="100" x="171.25" y="-57.5" id="h475896179" class="t"><rect height="40" width="146.06" class="th"></rect><text x="13" y="25" class="tht">departments</text><rect height="60" width="146.06" class="t-bg"></rect><text x="13" y="61" class="tf fk">dept_no<tspan x="133.06" class="ty">varchar</tspan></text><text x="13" y="86" class="tf">dept_name<tspan x="133.06" class="ty">varchar</tspan></text></svg><svg width="129.39" height="100" x="456.25" y="-16.25" id="h1090417462" class="t"><rect height="40" width="129.39" class="th"></rect><text x="13" y="25" class="tht">dept_emp</text><rect height="60" width="129.39" class="t-bg"></rect><text x="13" y="61" class="tf fk">emp_no<tspan x="116.38999999999999" class="ty">int</tspan></text><text x="13" y="86" class="tf">dept_no<tspan x="116.38999999999999" class="ty">varchar</tspan></text></svg><svg width="129.39" height="100" x="5" y="16.25" id="h1676682957" class="t"><rect height="40" width="129.39" class="th"></rect><text x="13" y="25" class="tht">dept_manager</text><rect height="60" width="129.39" class="t-bg"></rect><text x="13" y="61" class="tf fk">dept_no<tspan x="116.38999999999999" class="ty">varchar</tspan></text><text x="13" y="86" class="tf fk">emp_no<tspan x="116.38999999999999" class="ty">int</tspan></text></svg><svg width="120.7" height="100" x="501.25" y="276.25" id="h311790747" class="t"><rect height="40" width="120.7" class="th"></rect><text x="13" y="25" class="tht">titles</text><rect height="60" width="120.7" class="t-bg"></rect><text x="13" y="61" class="tf fk">title_id<tspan x="107.7" class="ty">varchar</tspan></text><text x="13" y="86" class="tf">title<tspan x="107.7" class="ty">varchar</tspan></text></svg><svg width="142.04" height="225" x="232.5" y="172.5" id="h1639608377" class="t"><rect height="40" width="142.04" class="th"></rect><text x="13" y="25" class="tht">employees</text><rect height="185" width="142.04" class="t-bg"></rect><text x="13" y="61" class="tf fk">emp_no<tspan x="129.04" class="ty">int</tspan></text><text x="13" y="86" class="tf fk">emp_title<tspan x="129.04" class="ty">varchar</tspan></text><text x="13" y="111" class="tf">birth_date<tspan x="129.04" class="ty">date</tspan></text><text x="13" y="136" class="tf">first_name<tspan x="129.04" class="ty">varchar</tspan></text><text x="13" y="161" class="tf">last_name<tspan x="129.04" class="ty">varchar</tspan></text><text x="13" y="186" class="tf">sex<tspan x="129.04" class="ty">varchar</tspan></text><text x="13" y="211" class="tf">hire_date<tspan x="129.04" class="ty">date</tspan></text></svg><svg width="102.04" height="100" x="26.25" y="232.5" id="h2472833127" class="t"><rect height="40" width="102.04" class="th"></rect><text x="13" y="25" class="tht">salaries</text><rect height="60" width="102.04" class="t-bg"></rect><text x="13" y="61" class="tf fk">emp_no<tspan x="89.04" class="ty">int</tspan></text><text x="13" y="86" class="tf">salaries<tspan x="89.04" class="ty">int</tspan></text></svg></g></g><text class="qdbd-link" x="10" y="20">www.quickdatabasediagrams.com</text></svg>